<svg width="309" height="206" viewBox="0 0 309 206" fill="none" xmlns="http://www.w3.org/2000/svg">
<g clip-path="url(#clip0_1_2)">
<path d="M507 -97H-133V303H507V-97Z" fill="white"/>
<g clip-path="url(#clip1_1_2)">
<g clip-path="url(#clip2_1_2)">
<g clip-path="url(#clip3_1_2)">
<g clip-path="url(#clip4_1_2)">
<g clip-path="url(#clip5_1_2)">
<g clip-path="url(#clip6_1_2)">
<g clip-path="url(#clip7_1_2)">
<g clip-path="url(#clip8_1_2)">
<path d="M74.7709 126.475H64.7941V60.5497H74.7709V126.475ZM112.331 118.748C116.178 118.748 119.34 117.228 121.818 114.19C124.296 111.164 125.535 106.912 125.535 101.435C125.535 96.2836 124.329 92.1951 121.916 89.1694C119.503 86.1307 116.439 84.6114 112.722 84.6114C109.005 84.6114 105.79 85.9612 103.078 88.6608C100.378 91.3734 99.0282 95.6641 99.0282 101.533C99.0282 107.271 100.378 111.575 103.078 114.444C105.79 117.313 108.875 118.748 112.331 118.748ZM89.4426 76.8843H99.0282V84.5136C102.419 78.9709 107.505 76.1996 114.287 76.1996C120.808 76.1996 125.959 78.5601 129.741 83.2812C133.523 88.0152 135.414 94.0339 135.414 101.337C135.414 108.836 133.471 115.011 129.585 119.863C125.711 124.727 120.547 127.159 114.091 127.159C107.505 127.159 102.484 124.421 99.0282 118.943V145.45H89.4426V76.8843ZM174.441 78.5471V87.2523C171.246 85.3613 167.138 84.4158 162.117 84.4158C159.834 84.4158 158.022 84.9374 156.678 85.9808C155.348 87.0241 154.683 88.3934 154.683 90.0889C154.683 90.5453 154.729 90.9822 154.82 91.3995C154.924 91.8299 155.107 92.2537 155.368 92.6711C155.629 93.1015 155.87 93.4601 156.092 93.747C156.326 94.047 156.704 94.36 157.226 94.686C157.748 95.012 158.152 95.2859 158.439 95.5076C158.739 95.7424 159.228 96.0228 159.906 96.3488C160.597 96.6748 161.106 96.9161 161.432 97.0726C161.758 97.2421 162.325 97.503 163.134 97.8551C163.956 98.2203 164.529 98.4681 164.855 98.5985C168.703 100.294 171.715 102.198 173.893 104.311C176.084 106.436 177.18 109.26 177.18 112.781C177.18 117.215 175.615 120.684 172.485 123.188C169.355 125.705 165.116 126.964 159.769 126.964C153.901 126.964 149.01 125.986 145.097 124.029V114.933C149.662 117.737 154.39 119.139 159.28 119.139C161.823 119.139 163.793 118.617 165.188 117.574C166.596 116.531 167.301 115.161 167.301 113.466C167.301 112.031 166.746 110.74 165.638 109.592C164.529 108.458 163.401 107.61 162.254 107.049C161.119 106.502 159.182 105.641 156.444 104.467C148.684 101.272 144.804 96.577 144.804 90.3823C144.804 86.0134 146.434 82.59 149.695 80.1121C152.955 77.6342 157.03 76.3952 161.921 76.3952C167.268 76.3952 171.441 77.1125 174.441 78.5471ZM217.948 103.88V76.8843H227.533V126.475H217.948V117.965C215.339 124.029 210.188 127.062 202.493 127.062C197.603 127.062 193.723 125.608 190.854 122.699C187.985 119.804 186.55 115.813 186.55 110.727V76.8843H196.233V108.38C196.233 111.77 197.068 114.359 198.737 116.146C200.394 117.946 202.689 118.845 205.623 118.845C209.34 118.845 212.327 117.541 214.583 114.933C216.826 112.325 217.948 108.64 217.948 103.88ZM241.031 76.8843H250.617V84.807C253.421 79.0687 258.083 76.1996 264.604 76.1996C272.037 76.1996 276.798 79.3948 278.884 85.7851C280.254 82.7204 282.242 80.3533 284.851 78.684C287.459 77.0277 290.393 76.1996 293.654 76.1996C298.74 76.1996 302.607 77.6994 305.254 80.6989C307.889 83.6985 309.206 87.8392 309.206 93.121V126.475H299.62V95.1751C299.62 88.0674 296.751 84.5136 291.013 84.5136C288.144 84.5136 285.588 85.7851 283.344 88.3282C281.088 90.8713 279.96 94.6208 279.96 99.5766V126.475H270.375V95.1751C270.375 88.0674 267.473 84.5136 261.669 84.5136C258.865 84.5136 256.322 85.7851 254.04 88.3282C251.758 90.8713 250.617 94.6208 250.617 99.5766V126.475H241.031V76.8843Z" fill="#001F3F"/>
</g>
</g>
</g>
</g>
</g>
</g>
</g>
<path d="M205.423 54.55V0.317993H0.0599976V205.682H205.423V151.45H197.767V198.025H7.716V7.97499H197.767V54.55H205.423Z" fill="#001F3F"/>
</g>
</g>
<defs>
<clipPath id="clip0_1_2">
<rect width="640" height="400" fill="white" transform="translate(-133 -97)"/>
</clipPath>
<clipPath id="clip1_1_2">
<rect width="395.52" height="247.2" fill="white" transform="translate(-10.76 -20.6)"/>
</clipPath>
<clipPath id="clip2_1_2">
<rect width="244.431" height="84.9005" fill="white" transform="translate(64.7843 60.5497)"/>
</clipPath>
<clipPath id="clip3_1_2">
<rect width="244.431" height="84.9005" fill="white" transform="translate(64.7843 60.5497)"/>
</clipPath>
<clipPath id="clip4_1_2">
<rect width="244.431" height="84.9005" fill="white" transform="translate(64.7843 60.5497)"/>
</clipPath>
<clipPath id="clip5_1_2">
<rect width="244.431" height="84.9005" fill="white" transform="translate(64.7843 60.5497)"/>
</clipPath>
<clipPath id="clip6_1_2">
<rect width="244.431" height="84.9005" fill="white" transform="translate(64.7843 60.5497)"/>
</clipPath>
<clipPath id="clip7_1_2">
<rect width="244.431" height="84.9005" fill="white" transform="translate(64.7843 60.5497)"/>
</clipPath>
<clipPath id="clip8_1_2">
<rect width="244.431" height="84.9005" fill="white" transform="translate(64.7843 60.5497)"/>
</clipPath>
</defs>
</svg>
